<svg width="20" height="20" viewBox="0 0 20 20" fill="none" xmlns="http://www.w3.org/2000/svg">
<path d="M19.3742 10.8458C18.9 10.3083 18.2167 10 17.5 10H1.66667V3.61083C1.66667 2.53917 2.53917 1.66667 3.61083 1.66667C4.21917 1.66667 4.80167 1.9575 5.16667 2.44417L5.3825 2.73167L4.98 5.04083C4.93167 5.31917 4.98917 5.60583 5.14167 5.84333C5.49583 6.395 6.24417 6.53 6.76833 6.13667L9.77333 3.88333C10.2458 3.52917 10.365 2.86917 10.0458 2.37167L10.035 2.35417C9.8375 2.04583 9.50167 1.8525 9.13583 1.83583L6.71417 1.72833L6.50083 1.44333C5.8225 0.539167 4.7425 0 3.61167 0C1.61917 0 0 1.61917 0 3.61083V10.8333C0 10.8333 0 10.8367 0 10.8383C0 10.8467 0 10.855 0 10.8625C0 10.87 0 10.8775 0.000833333 10.885C0.000833333 10.8908 0.000833333 10.8958 0.0025 10.9017C0.00333333 10.9117 0.00416667 10.9225 0.00583333 10.9325C0.00583333 10.9342 0.00583333 10.935 0.00583333 10.9367L0.2925 13.2275C0.501667 14.8983 1.31167 16.3667 2.48833 17.425L2.1075 18.9667C1.99667 19.4133 2.26917 19.865 2.71583 19.9758C2.78333 19.9925 2.85 20 2.91667 20C3.29083 20 3.63083 19.7458 3.725 19.3667L3.95583 18.4325C4.88 18.9025 5.9225 19.1667 7.01917 19.1667H13.2C14.2192 19.1667 15.1917 18.9392 16.0667 18.5292L16.2742 19.3667C16.3675 19.7458 16.7083 20 17.0825 20C17.1492 20 17.2158 19.9917 17.2833 19.9758C17.73 19.865 18.0025 19.4133 17.8917 18.9667L17.55 17.5833C18.825 16.515 19.7092 14.9833 19.9283 13.2283L19.98 12.8108C20.0683 12.0992 19.8483 11.3842 19.3733 10.8467L19.3742 10.8458Z" fill="#2F94E2"/>
</svg>
