<svg width="20" height="18" viewBox="0 0 20 18" fill="none" xmlns="http://www.w3.org/2000/svg">
<path d="M1.66667 10.6667H20V17.3334H18.3333V14.8334H1.66667V17.3334H0V0.666748H1.66667V10.6667ZM4.58333 9.00008C4.99538 9.00008 5.39817 8.8779 5.74077 8.64898C6.08337 8.42006 6.3504 8.09468 6.50808 7.71401C6.66576 7.33333 6.70702 6.91444 6.62664 6.51031C6.54625 6.10618 6.34783 5.73497 6.05647 5.44361C5.76511 5.15225 5.3939 4.95383 4.98977 4.87345C4.58564 4.79306 4.16676 4.83432 3.78608 4.992C3.4054 5.14968 3.08002 5.41671 2.8511 5.75931C2.62219 6.10191 2.5 6.5047 2.5 6.91675C2.5 7.19034 2.55389 7.46124 2.65858 7.71401C2.76328 7.96677 2.91674 8.19643 3.11019 8.38989C3.5009 8.78059 4.0308 9.00008 4.58333 9.00008ZM17.5 4.00008H10C9.33696 4.00008 8.70107 4.26347 8.23223 4.73231C7.76339 5.20116 7.5 5.83704 7.5 6.50008V9.00008H20V6.50008C20 5.83704 19.7366 5.20116 19.2678 4.73231C18.7989 4.26347 18.163 4.00008 17.5 4.00008Z" fill="#2F94E2"/>
</svg>
