<svg width="20" height="16" viewBox="0 0 20 16" fill="none" xmlns="http://www.w3.org/2000/svg">
<path d="M8.33333 13.8333C8.33333 12.9167 9.08333 12.1667 10 12.1667C10.9167 12.1667 11.6667 12.9167 11.6667 13.8333C11.6667 14.75 10.9167 15.5 10 15.5C9.08333 15.5 8.33333 14.75 8.33333 13.8333ZM15.3 10.3C15.7917 9.80833 15.7917 9.01667 15.3 8.53333C12.375 5.60833 7.61667 5.60833 4.69167 8.53333C4.2 9.025 4.2 9.81667 4.69167 10.3C5.18333 10.7833 5.975 10.7917 6.45833 10.3C8.40833 8.35 11.5833 8.35 13.5333 10.3C13.775 10.5417 14.1 10.6667 14.4167 10.6667C14.7333 10.6667 15.0583 10.5417 15.3 10.3ZM19.6083 6.40833C20.1083 5.93333 20.125 5.14167 19.65 4.64167C19.575 4.56667 19.5 4.48333 19.425 4.40833C16.9083 1.89167 13.5583 0.5 10 0.5C6.44167 0.5 3.09167 1.88333 0.575002 4.4C0.500002 4.475 0.425002 4.55833 0.350002 4.63333C-0.124998 5.13333 -0.108332 5.925 0.391668 6.4C0.891668 6.875 1.68333 6.85833 2.15833 6.35833L2.34167 6.16667C4.39167 4.11667 7.10833 2.99167 10 2.99167C12.8917 2.99167 15.6167 4.11667 17.6667 6.16667L17.85 6.35C18.0917 6.60833 18.425 6.73333 18.75 6.73333C19.0583 6.73333 19.375 6.61667 19.6167 6.39167L19.6083 6.40833Z" fill="#2F94E2"/>
</svg>
